<?xml version="1.0" encoding="UTF-8" standalone="no"?>
<!-- Created with Inkscape (http://www.inkscape.org/) -->

<svg
   width="210mm"
   height="297mm"
   viewBox="0 0 210 297"
   version="1.1"
   id="svg5"
   xml:space="preserve"
   sodipodi:docname="BlueBullet2.svg"
   inkscape:version="1.2.1 (9c6d41e410, 2022-07-14)"
   xmlns:inkscape="http://www.inkscape.org/namespaces/inkscape"
   xmlns:sodipodi="http://sodipodi.sourceforge.net/DTD/sodipodi-0.dtd"
   xmlns:xlink="http://www.w3.org/1999/xlink"
   xmlns="http://www.w3.org/2000/svg"
   xmlns:svg="http://www.w3.org/2000/svg"><sodipodi:namedview
     id="namedview16051"
     pagecolor="#505050"
     bordercolor="#ffffff"
     borderopacity="1"
     inkscape:showpageshadow="0"
     inkscape:pageopacity="0"
     inkscape:pagecheckerboard="1"
     inkscape:deskcolor="#505050"
     inkscape:document-units="mm"
     showgrid="false"
     inkscape:zoom="0.71624579"
     inkscape:cx="386.04066"
     inkscape:cy="561.25984"
     inkscape:window-width="1920"
     inkscape:window-height="974"
     inkscape:window-x="-11"
     inkscape:window-y="474"
     inkscape:window-maximized="1"
     inkscape:current-layer="svg5" /><defs
     id="defs2"><linearGradient
       id="linearGradient2400"><stop
         style="stop-color:#ffffff;stop-opacity:1;"
         offset="0"
         id="stop2396" /><stop
         style="stop-color:#717171;stop-opacity:1;"
         offset="1"
         id="stop2398" /></linearGradient><linearGradient
       xlink:href="#linearGradient2400"
       id="linearGradient2408"
       x1="96.842102"
       y1="66.808014"
       x2="96.476738"
       y2="233.40877"
       gradientUnits="userSpaceOnUse" /></defs><g
     id="layer1"><path
       style="fill:url(#linearGradient2408);stroke-width:0.264583;fill-opacity:1"
       d="m 85.659232,213.86115 c -0.89968,-0.7548 -5.30615,-12.62754 -7.58579,-20.43907 -4.59656,-15.7508 -7.07604,-27.47569 -8.5886,-40.61354 -1.54274,-13.4 -1.43935,-26.31362 0.28705,-35.85104 2.46794,-13.634 8.06462,-27.010929 15.71916,-37.571167 0.29104,-0.401523 0.94054,-1.307261 1.44333,-2.012751 1.00178,-1.405659 1.04938,-1.464853 3.48707,-4.336583 2.88528,-3.399015 5.24576,-5.761208 5.92818,-5.932486 0.91045,-0.228506 1.85191,0.334694 3.58028,2.141777 12.743808,13.324156 21.421598,31.03747 24.430688,49.86853 1.49534,9.35794 1.15215,26.4776 -0.78152,38.98539 -1.64593,10.64656 -2.1983,13.45957 -4.39011,22.35729 -2.68224,10.88856 -6.22712,22.15282 -9.5661,30.39732 -1.24121,3.06474 -1.87403,3.74772 -3.05801,3.30039 -0.73182,-0.27649 -6.12391,-4.17508 -8.323528,-6.01807 -0.91348,-0.76538 -1.37231,-0.99484 -1.62583,-0.81308 -0.19426,0.13928 -2.18142,1.63365 -4.41591,3.32083 -5.3434,4.0346 -5.48306,4.10328 -6.54036,3.21626 z m 5.78557,-7.10599 3.70354,-2.80651 0.004,-9.16589 c 0.002,-5.04123 0.0729,-9.42403 0.15749,-9.73953 0.0846,-0.31551 0.5073,-0.72005 0.93928,-0.89898 0.6834,-0.28308 0.87771,-0.25643 1.49616,0.20515 l 0.71075,0.53047 0.13229,9.61631 0.13229,9.61631 0.96728,0.67407 c 0.531998,0.37073 1.305898,0.94297 1.719788,1.27164 2.62356,2.08337 4.69369,3.50014 4.84829,3.31812 0.27246,-0.32081 1.77439,-4.24464 3.32177,-8.6782 0.76183,-2.18281 1.4496,-4.14734 1.52837,-4.36562 1.94925,-5.40155 7.37743,-26.23047 6.94783,-26.66008 -0.30622,-0.30622 -4.91119,-1.46761 -8.08853,-2.03997 -6.2062,-1.11796 -8.37794,-1.28265 -14.785428,-1.12126 -7.15287,0.18016 -12.215,0.92188 -17.82314,2.61147 -1.57761,0.4753 -1.76987,0.60377 -1.6575,1.1076 0.0699,0.31347 0.4306,1.93917 0.80151,3.61266 1.6003,7.22009 5.12153,20.07018 6.19893,22.62187 0.12288,0.29104 0.66231,1.83886 1.19873,3.43958 0.53642,1.60073 1.14404,3.2856 1.35027,3.74416 0.20623,0.45855 0.37496,0.94404 0.37496,1.07886 0,0.13482 0.31132,1.0098 0.69183,1.94439 0.3805,0.93459 0.79427,1.96715 0.91949,2.29457 0.12522,0.32743 0.29043,0.59532 0.36714,0.59532 0.0767,0 1.80606,-1.26293 3.843,-2.80651 z m -13.36209,-41.39352 c 7.70337,-2.11208 18.18007,-2.88117 26.668198,-1.95768 4.06498,0.44225 9.29294,1.43204 12.03131,2.27784 0.94273,0.29118 1.80535,0.43085 1.91693,0.31037 0.3061,-0.33052 1.07259,-5.20422 0.85122,-5.41245 -0.10597,-0.0997 -1.08563,-0.43397 -2.17703,-0.7429 -1.09141,-0.30893 -2.57969,-0.73237 -3.3073,-0.94097 -3.17301,-0.90969 -9.29356,-1.78395 -14.816658,-2.1164 -5.01573,-0.30191 -14.30046,0.74139 -19.84375,2.22979 -4.28374,1.15019 -5.00541,1.36862 -5.23329,1.58395 -0.19511,0.18436 0.49953,4.92996 0.79063,5.40142 0.0752,0.12182 0.39121,0.14349 0.70221,0.0482 0.311,-0.0953 1.39889,-0.40184 2.41753,-0.68113 z m 42.308198,-9.04737 c 0.0721,-0.47294 0.25545,-1.99099 0.40739,-3.37344 0.15193,-1.38244 0.39563,-3.5851 0.54156,-4.89479 0.14592,-1.30968 0.26565,-3.17112 0.26606,-4.13653 l 8e-4,-1.75528 -1.79058,-0.66371 c -4.37583,-1.62195 -10.90219,-3.01172 -17.12718,-3.64718 -5.763348,-0.58833 -14.956848,0.0518 -21.166658,1.47372 -2.24213,0.51341 -7.89188,2.17697 -8.8025,2.59188 l -0.65675,0.29924 0.17575,3.27378 c 0.16054,2.99024 0.72047,8.40322 1.09598,10.59524 0.17114,0.99898 0.25435,1.00427 3.02814,0.19225 6.13163,-1.79501 11.25752,-2.54206 18.65439,-2.71871 7.492908,-0.17894 11.107028,0.14644 18.091228,1.62876 2.18181,0.46306 6.38688,1.64731 6.59762,1.85804 0.3266,0.32661 0.56267,0.0773 0.68475,-0.72327 z M 74.785942,137.61296 c 6.31265,-1.95655 10.83582,-2.77836 17.79778,-3.23366 8.926328,-0.58377 17.370528,0.45672 26.461228,3.26052 1.42871,0.44065 2.6418,0.75704 2.69576,0.70309 0.054,-0.0539 0.12124,-1.34382 0.14952,-2.86637 l 0.0514,-2.76827 -2.41811,-0.85885 c -3.45548,-1.22729 -8.05607,-2.35877 -12.33667,-3.03413 -4.96141,-0.78276 -14.993398,-0.84104 -19.843748,-0.11528 -4.06266,0.60791 -8.9215,1.75413 -12.56183,2.96341 l -2.86523,0.9518 -0.0997,1.04559 c -0.1354,1.41983 0.0657,4.72794 0.28746,4.72794 0.0985,0 1.30546,-0.34911 2.68212,-0.77579 z m -1.04538,-9.28587 c 8.34053,-2.66448 14.24609,-3.56745 23.25986,-3.55651 8.865508,0.0108 14.749578,0.89644 22.175558,3.33783 1.35526,0.44556 2.5338,0.74042 2.61898,0.65525 0.22063,-0.22064 -0.64881,-7.97751 -1.26401,-11.27699 -2.71318,-14.55161 -9.41375,-29.113028 -18.50345,-40.210985 -0.21828,-0.266508 -0.93265,-1.144937 -1.5875,-1.952063 -0.654838,-0.807127 -1.279918,-1.473284 -1.389058,-1.48035 -0.10914,-0.0071 -0.20975,0.790825 -0.22357,1.77309 -0.10961,7.788371 -0.16731,8.36494 -0.90026,8.995834 -0.86814,0.747257 -1.25142,0.747257 -2.11171,0 -0.73101,-0.634966 -0.7292,-0.616067 -0.9034,-9.433716 l -0.0282,-1.430069 -0.56073,0.504028 c -1.37159,1.232872 -5.74393,6.991467 -8.21743,10.822777 -7.19643,11.146833 -11.85213,23.740184 -13.54738,36.644784 -0.50429,3.83874 -0.79412,7.14375 -0.62647,7.14375 0.0709,0 0.88487,-0.2415 1.80882,-0.53666 z"
       id="path905" /></g><path
     style="fill:#ffffff;stroke:#0098fe;stroke-width:3.60937;fill-opacity:1"
     d="m 327.81605,782.85102 c -14.58428,-38.49291 -26.2513,-76.68371 -36.06785,-118.06439 -4.37337,-18.43552 -4.92363,-22.33094 -3.29726,-23.34204 1.07369,-0.6675 8.54906,-2.7647 16.61193,-4.66046 41.76919,-9.82081 91.99477,-8.74498 133.53291,2.86029 l 7.17963,2.00591 -2.64951,12.16108 c -7.26632,33.35193 -19.69643,76.48361 -31.46883,109.19482 -11.38245,31.62769 -8.51977,29.56217 -24.56036,17.72111 l -13.60373,-10.04218 -0.009,-35.73496 c -0.009,-34.13352 -0.13595,-35.84992 -2.84353,-38.30025 -2.24566,-2.03229 -3.62357,-2.28797 -6.6318,-1.23055 l -3.79719,1.33474 -0.37213,36.5713 -0.37214,36.5713 -10.79721,8.18881 c -5.93847,4.50384 -12.37994,9.21347 -14.31438,10.46582 l -3.51715,2.27701 z"
     id="path16602"
     transform="scale(0.26458333)" /><path
     style="fill:#ffffff;stroke:#0098fe;stroke-width:3.60937;fill-opacity:1"
     d="m 443.28358,481.38497 c -24.75925,-7.24796 -37.04622,-9.0238 -67.85596,-9.80726 -37.83066,-0.96199 -58.23476,1.43419 -88.87687,10.43737 -6.72614,1.97625 -12.65245,3.1701 -13.16956,2.65298 -1.32897,-1.32897 1.86662,-29.81651 5.09388,-45.41026 10.99625,-53.13244 32.64531,-99.84727 66.41515,-143.31203 13.53235,-17.41734 13.21289,-17.3891 13.30753,-1.17607 0.10528,18.03735 1.26665,24.11825 5.09097,26.65641 2.82109,1.87232 3.373,1.74646 6.6318,-1.51234 3.32567,-3.32567 3.56359,-4.48046 3.69379,-17.92881 0.22508,-23.24733 0.30078,-23.30238 11.93307,-8.67737 39.95724,50.23725 65.07532,110.44943 72.44127,173.65359 1.18959,10.2074 1.98018,18.68606 1.75688,18.84145 -0.2233,0.15538 -7.63118,-1.83255 -16.46195,-4.41766 z"
     id="path16604"
     transform="scale(0.26458333)" /><path
     style="fill:#ffffff;stroke:#0098fe;stroke-width:3.60937;fill-opacity:1"
     d="m 277.93421,589.6592 c -0.79223,-3.60433 -2.98681,-23.85799 -4.38679,-40.48546 -1.06787,-12.683 -2.31282,-11.5451 19.42478,-17.75452 27.22511,-7.77696 37.60399,-9.08416 72.82402,-9.17201 35.54208,-0.0887 49.20516,1.76879 78.53449,10.67643 l 14.31073,4.34633 v 8.22223 c 0,7.63733 -3.94562,45.99219 -4.82259,46.87994 -0.21549,0.21812 -5.67414,-1.13419 -12.13038,-3.00513 -22.93683,-6.64683 -43.78779,-9.26131 -73.62394,-9.23163 -15.38637,0.0153 -33.82679,0.88355 -42.05912,1.9803 -12.64106,1.68411 -38.37246,7.36576 -45.16749,9.97325 -1.51302,0.5806 -2.40634,-0.1669 -2.90371,-2.42973 z"
     id="path16606"
     transform="scale(0.26458333)" /></svg>
