<?xml version="1.0" encoding="UTF-8" standalone="no"?>
<!-- Created with Inkscape (http://www.inkscape.org/) -->

<svg
   width="130.00015"
   height="129.99792"
   viewBox="0 0 34.395874 34.395284"
   version="1.1"
   id="svg792"
   xml:space="preserve"
   inkscape:version="1.2.1 (9c6d41e410, 2022-07-14)"
   sodipodi:docname="BlueBlast.svg"
   xmlns:inkscape="http://www.inkscape.org/namespaces/inkscape"
   xmlns:sodipodi="http://sodipodi.sourceforge.net/DTD/sodipodi-0.dtd"
   xmlns="http://www.w3.org/2000/svg"
   xmlns:svg="http://www.w3.org/2000/svg"><sodipodi:namedview
     id="namedview794"
     pagecolor="#505050"
     bordercolor="#ffffff"
     borderopacity="1"
     inkscape:showpageshadow="0"
     inkscape:pageopacity="0"
     inkscape:pagecheckerboard="1"
     inkscape:deskcolor="#505050"
     inkscape:document-units="mm"
     showgrid="false"
     inkscape:zoom="0.71624579"
     inkscape:cx="90.052885"
     inkscape:cy="183.59619"
     inkscape:window-width="1920"
     inkscape:window-height="991"
     inkscape:window-x="-9"
     inkscape:window-y="-9"
     inkscape:window-maximized="1"
     inkscape:current-layer="layer1" /><defs
     id="defs789" /><g
     inkscape:label="Layer 1"
     inkscape:groupmode="layer"
     id="layer1"
     transform="translate(-80.626511,-99.884051)"><path
       style="fill:#00ffff;stroke-width:0.140992"
       d="m 83.684925,134.14796 c -0.603688,-0.25112 -0.507928,-1.06053 0.145439,-1.22934 0.507787,-0.1312 0.912172,0.16262 0.912172,0.66279 0,0.32745 -0.08353,0.46036 -0.35645,0.56718 -0.196042,0.0767 -0.368004,0.13544 -0.382137,0.13045 -0.01413,-0.005 -0.157692,-0.064 -0.319024,-0.13108 z m 2.789781,0.003 c -0.524173,-0.21626 -0.665285,-0.51396 -0.456842,-0.9638 0.147902,-0.3192 0.293603,-0.40998 0.71553,-0.44581 0.638698,-0.0542 0.927297,0.1601 0.927297,0.68873 0,0.59089 -0.606903,0.95978 -1.185985,0.72087 z m 10.129661,-0.64935 c -0.110083,-0.29533 0.03918,-0.64375 0.275773,-0.64375 0.278179,0 0.5536,0.38589 0.45816,0.64193 -0.104174,0.27948 -0.629948,0.28078 -0.733933,0.002 z m 0.540328,-0.16627 c -0.09553,-0.0397 -0.251866,-0.0397 -0.3474,0 -0.09554,0.0397 -0.01739,0.0722 0.1737,0.0722 0.191068,0 0.269234,-0.0325 0.1737,-0.0722 z m 2.420249,0.20141 c -0.322232,-0.24256 -0.175664,-0.6292 0.271908,-0.71728 0.398078,-0.0783 0.772968,0.2317 0.656848,0.54322 -0.0431,0.11575 -0.12917,0.21045 -0.19117,0.21045 -0.062,0 -0.1978,0.0336 -0.30178,0.0747 -0.103978,0.0411 -0.300093,-0.009 -0.435806,-0.11107 z m 10.051386,-0.18664 c 0,-0.12266 0.0636,-0.18259 0.14123,-0.13317 0.0777,0.0494 0.10525,0.14978 0.0613,0.22302 -0.11912,0.19843 -0.20251,0.16143 -0.20251,-0.0899 z m 2.94218,-0.0143 c 0.0586,-0.31306 0.46234,-0.35735 0.46234,-0.0507 0,0.11695 -0.11511,0.23545 -0.2558,0.26334 -0.1857,0.0368 -0.2423,-0.0215 -0.20654,-0.21262 z m -31.126787,-0.5229 c -0.33052,-0.36219 -0.402352,-1.08213 -0.135392,-1.35695 0.09172,-0.0944 0.368566,-0.17167 0.615233,-0.17167 0.540302,0 1.024491,0.54762 1.024491,1.1587 0,0.72079 -0.967113,0.95861 -1.504332,0.36992 z m 3.797171,-0.0981 c 0.04722,-0.0787 0.113454,-0.14306 0.147162,-0.14306 0.03372,0 0.06127,0.0644 0.06127,0.14306 0,0.0787 -0.06622,0.14305 -0.147156,0.14305 -0.08094,0 -0.108518,-0.0644 -0.06128,-0.14305 z m 9.32023,-0.36786 c -0.120098,-0.12364 -0.218363,-0.41332 -0.218363,-0.64374 0,-0.36347 0.05152,-0.41895 0.389085,-0.41895 0.213999,0 0.464127,0.0772 0.555838,0.17167 0.25529,0.26281 0.198416,0.8022 -0.102031,0.96774 -0.347616,0.19152 -0.366187,0.18923 -0.624529,-0.0767 z m 0.593683,-0.41023 c 0.02626,-0.13953 -0.02978,-0.32732 -0.124604,-0.41731 -0.130497,-0.12386 -0.148984,-0.1209 -0.07609,0.0122 0.05296,0.0967 0.02479,0.31339 -0.06259,0.48148 -0.127125,0.24454 -0.121464,0.29279 0.02831,0.24145 0.102961,-0.0353 0.208695,-0.17833 0.23497,-0.31786 z m -7.468755,0.008 c -0.227922,-0.28272 -0.139394,-1.09573 0.138832,-1.27494 0.314665,-0.20269 0.924939,-0.009 1.028357,0.32654 0.13566,0.44002 -0.222581,1.06806 -0.637632,1.11787 -0.197046,0.0236 -0.435346,-0.0526 -0.529557,-0.16947 z m 19.718928,-0.10003 c 0,-0.34863 0.32472,-0.29935 0.39233,0.0595 0.0266,0.14116 -0.0443,0.23849 -0.1737,0.23849 -0.1289,0 -0.21863,-0.12231 -0.21863,-0.29803 z m -6.32759,-0.7193 c -0.0595,-0.19286 -0.0126,-0.38495 0.1296,-0.53134 0.19536,-0.20113 0.24663,-0.20356 0.41736,-0.0198 0.13495,0.14523 0.15763,0.30819 0.074,0.53135 -0.15216,0.40582 -0.4985,0.41687 -0.62092,0.0198 z m 13.13662,-0.19019 c 0,-0.12266 0.0625,-0.22302 0.13896,-0.22302 0.0764,0 0.13896,0.0606 0.13896,0.13461 0,0.074 -0.0625,0.1744 -0.13896,0.22303 -0.0764,0.0486 -0.13896,-0.012 -0.13896,-0.13462 z m -33.49629,-0.59956 c -0.172135,-0.46609 -0.0599,-0.86404 0.29956,-1.06208 0.607874,-0.33491 1.101733,0.2576 0.900995,1.08098 -0.07226,0.2964 -0.170607,0.35764 -0.57434,0.35764 -0.398287,0 -0.512519,-0.0687 -0.626215,-0.37654 z m 13.122564,-0.54496 c -0.151537,-0.40654 0.01287,-0.72296 0.399442,-0.76889 0.376087,-0.0447 0.451827,0.0631 0.383529,0.54595 -0.05909,0.41777 -0.647858,0.58542 -0.782971,0.22294 z m 0.57767,-0.23245 c 0.142582,-0.2375 0.0146,-0.27044 -0.184892,-0.0476 -0.09855,0.11008 -0.117872,0.20015 -0.04296,0.20015 0.07493,0 0.177455,-0.0687 0.227833,-0.15257 z m -6.536826,-0.15653 c -0.689921,-0.39059 -0.989901,-1.42152 -0.620427,-2.13223 0.214719,-0.41303 1.027223,-0.37162 1.460504,0.0744 0.473874,0.48784 0.492908,1.66898 0.03225,2.00115 -0.36157,0.26071 -0.496405,0.26947 -0.872319,0.0566 z m 18.925472,0.0746 c -0.11102,-0.11429 0.0145,-0.33768 0.1897,-0.33768 0.0719,0 0.13076,0.0966 0.13076,0.21458 0,0.22122 -0.16397,0.28421 -0.32046,0.1231 z m -25.587663,-1.22784 c -0.310127,-0.45582 -0.268289,-0.76365 0.149824,-1.10222 0.683761,-0.5537 1.440336,-0.25747 1.440336,0.56394 0,0.78569 -1.155666,1.17689 -1.59016,0.53828 z m 19.817213,-0.0533 c -0.24896,-0.17951 -0.30741,-0.33968 -0.2741,-0.75103 0.0361,-0.446 0.0965,-0.52933 0.41104,-0.5668 0.67233,-0.0801 1.12302,1.07873 0.54368,1.39792 -0.33832,0.18639 -0.30573,0.19023 -0.68062,-0.0801 z m 0.2263,-0.7667 c -0.0933,-0.15378 -0.19653,-0.2519 -0.22942,-0.21804 -0.0596,0.0613 0.24328,0.49764 0.34539,0.49764 0.0295,0 -0.0227,-0.12582 -0.11597,-0.2796 z m -17.272194,0.2796 c -0.04722,-0.0787 -0.01964,-0.14305 0.06128,-0.14305 0.08093,0 0.147156,0.0644 0.147156,0.14305 0,0.0787 -0.02757,0.14306 -0.06128,0.14306 -0.03372,0 -0.09992,-0.0644 -0.147162,-0.14306 z m 10.441721,-0.0258 c -0.47285,-0.27242 -0.172487,-0.97556 0.416732,-0.97556 0.386018,0 0.517319,0.20235 0.41189,0.63477 -0.09144,0.37506 -0.486857,0.53769 -0.828622,0.34079 z m 0.707647,-0.50184 c 0.04522,-0.14146 -0.288436,-0.16503 -0.770325,-0.0544 -0.02363,0.005 -0.0021,0.0779 0.04785,0.16109 0.116805,0.19456 0.651403,0.11563 0.722474,-0.10667 z m 19.028066,0.57534 c -0.0509,-0.0524 -0.0926,-0.21339 -0.0926,-0.35764 0,-0.32187 0.35517,-0.34804 0.47194,-0.0348 0.13508,0.36238 -0.13602,0.64285 -0.3793,0.3924 z m -29.774499,-0.39503 c -0.668362,-0.29953 -0.812125,-0.9505 -0.328041,-1.48541 0.420808,-0.465 1.547834,-0.44372 2.015821,0.0381 0.187592,0.19312 0.341082,0.48573 0.341082,0.65024 0,0.16452 -0.15349,0.45713 -0.341082,0.65025 -0.388303,0.39974 -1.003966,0.45331 -1.68778,0.14686 z m 22.907569,-0.26066 c 0.0318,-0.0983 0.14127,-0.17882 0.24318,-0.17882 0.1019,0 0.21133,0.0805 0.24318,0.17882 0.0344,0.10638 -0.0641,0.17882 -0.24318,0.17882 -0.17911,0 -0.27762,-0.0724 -0.24318,-0.17882 z m -9.796665,-0.69096 c -0.326492,-0.19577 -0.310794,-0.79955 0.02563,-0.9849 0.436149,-0.2403 1.094616,-0.17966 1.247749,0.1149 0.3733,0.71806 -0.514798,1.32483 -1.273353,0.87 z m 0.972717,-0.40594 c 0.09553,-0.006 0.1737,-0.065 0.1737,-0.13005 0,-0.065 -0.187597,-0.0899 -0.416879,-0.0553 -0.250238,0.0378 -0.41688,-5.4e-4 -0.41688,-0.0963 0,-0.0876 -0.06253,-0.15929 -0.138958,-0.15929 -0.07643,0 -0.138963,0.13095 -0.138963,0.291 0,0.23776 0.06991,0.27918 0.382143,0.22635 0.210175,-0.0356 0.460303,-0.07 0.555837,-0.0764 z m 12.041738,-0.17652 c -0.0544,-0.0906 0.0172,-0.25219 0.15917,-0.35904 0.2182,-0.16425 0.28845,-0.16302 0.45455,0.008 0.10806,0.11124 0.15411,0.2728 0.10234,0.35903 -0.12389,0.20637 -0.5905,0.20118 -0.71606,-0.008 z m -25.797753,-4.69982 c -1.063824,-0.19099 -2.402202,-0.69899 -2.937357,-1.11493 -0.819121,-0.63664 -1.103812,-1.40737 -1.031403,-2.79223 0.08051,-1.53977 0.585884,-2.77702 1.507021,-3.68947 0.727143,-0.72027 1.081754,-0.84286 2.438152,-0.84286 1.546416,0 3.431488,0.97128 4.050134,2.08683 0.572613,1.03256 0.314481,3.85202 -0.463464,5.06221 -0.696203,1.08303 -2.029225,1.56582 -3.563083,1.29045 z m 0.455502,-2.22269 c 0.140335,-0.17407 0.141952,-0.25711 0.0077,-0.39339 -0.133264,-0.13526 -0.212465,-0.11384 -0.364847,0.0987 -0.320846,0.44742 0.01239,0.7224 0.35719,0.29473 z m 1.374628,-0.15628 c 0.158401,-0.20731 0.288005,-0.55507 0.288005,-0.7728 0,-0.31608 -0.09104,-0.43046 -0.451621,-0.56741 -0.304533,-0.11566 -0.383734,-0.19619 -0.243179,-0.24724 0.458785,-0.16666 0.6948,-0.52143 0.6948,-1.04442 0,-0.59486 -0.183101,-0.81428 -0.777525,-0.93172 -0.51505,-0.10175 -1.167913,0.47859 -1.167913,1.03819 0,0.4115 0.350956,0.89957 0.646855,0.89957 0.241047,0 0.235432,0.0769 -0.03687,0.50468 -0.249424,0.39189 -0.181594,0.91729 0.164414,1.27349 0.31154,0.32072 0.553448,0.27899 0.883018,-0.15234 z m -2.548255,-0.55292 c 0.129756,-0.53224 -0.04343,-1.07291 -0.343724,-1.07291 -0.300537,0 -0.988809,0.52216 -0.988809,0.75015 0,0.30823 0.466385,0.68039 0.852645,0.68039 0.302984,0 0.412615,-0.0817 0.479888,-0.35763 z m 0.746381,0.2176 c 0.139793,-0.077 0.323251,-0.34405 0.407688,-0.5934 0.191011,-0.56408 -0.01087,-0.87367 -0.529273,-0.81164 -0.307821,0.0368 -0.365598,0.12201 -0.403292,0.5945 -0.04427,0.55488 0.03387,0.95057 0.187734,0.95057 0.04564,0 0.19735,-0.063 0.337143,-0.14003 z M 83.017871,117.069 c 0.05194,-0.13936 0.2432,-0.17635 0.661162,-0.12785 0.685851,0.0796 0.935994,-0.13291 0.954723,-0.81102 0.0135,-0.48874 -0.362411,-1.01086 -0.727778,-1.01086 -0.130702,0 -0.409007,0.13876 -0.618452,0.30837 -0.318656,0.25804 -0.368503,0.38646 -0.3054,0.7868 0.06378,0.4046 0.03388,0.47842 -0.193763,0.47842 -0.176547,0 -0.269187,0.0985 -0.269187,0.28611 0,0.32365 0.385661,0.39327 0.498695,0.09 z m 4.086978,0.053 c 0,-0.0787 -0.05884,-0.14306 -0.130755,-0.14306 -0.07192,0 -0.169409,0.0644 -0.216641,0.14306 -0.04721,0.0787 0.01161,0.14305 0.130755,0.14305 0.119152,0 0.216641,-0.0644 0.216641,-0.14305 z m -1.977282,-1.97594 c 0.03025,-0.0934 -0.04401,-0.16988 -0.165013,-0.16988 -0.121012,0 -0.220018,0.10193 -0.220018,0.22651 0,0.25262 0.299144,0.20862 0.385031,-0.0566 z m 24.314793,5.95967 c -0.23335,-0.0887 -0.41757,-0.28944 -0.47258,-0.51505 -0.16995,-0.6971 0.81528,-1.13433 1.66155,-0.73738 0.26748,0.12546 0.45928,0.0972 0.97163,-0.14306 0.79379,-0.37226 1.50613,-0.3871 1.81323,-0.0377 0.32891,0.37415 0.28445,0.78035 -0.12912,1.17977 -0.30919,0.29861 -0.46851,0.34018 -1.14642,0.29915 -0.43302,-0.0262 -0.94365,-0.0557 -1.13471,-0.0655 -0.19108,-0.01 -0.535,0.0234 -0.76428,0.0737 -0.22929,0.0503 -0.58898,0.0261 -0.7993,-0.0538 z m -11.519153,-0.12355 c -0.929387,-0.23874 -1.438571,-0.62042 -1.438571,-1.07834 0,-0.35542 0.073,-0.43336 0.52932,-0.56517 0.291125,-0.0841 0.592912,-0.24708 0.670636,-0.36221 0.107126,-0.15869 0.158375,-0.16607 0.211799,-0.0305 0.126815,0.32175 0.592417,0.20118 0.68469,-0.1773 l 0.08682,-0.35612 0.351446,0.28459 c 0.193296,0.15653 0.521274,0.2846 0.72885,0.2846 0.539093,0 1.216673,0.26941 1.310473,0.52104 0.32639,0.87563 -1.722531,1.84238 -3.135464,1.47943 z m 9.168813,-1.26472 c -0.35403,-0.32565 -0.46508,-0.56542 -0.54663,-1.1802 -0.0563,-0.42433 -0.14632,-1.04022 -0.20009,-1.36863 -0.0856,-0.52296 -0.0533,-0.64286 0.2602,-0.96561 0.4506,-0.46387 0.5783,-0.46125 1.01225,0.0208 0.28091,0.31203 0.33357,0.48194 0.26538,0.85617 -0.0697,0.38252 -0.0464,0.45157 0.12926,0.38219 0.14029,-0.0554 0.21435,-0.002 0.21435,0.15366 0,0.15232 -0.0627,0.19974 -0.1737,0.13141 -0.0955,-0.0588 0.0608,0.16289 0.3474,0.49266 0.6905,0.79449 0.69345,1.35096 0.009,1.72177 -0.48201,0.26119 -0.84031,0.19478 -1.31755,-0.24421 z m -12.147277,-0.15908 c -0.443959,-0.1849 -1.009444,-0.95741 -1.111743,-1.51878 -0.139368,-0.76477 0.0082,-1.88531 0.290595,-2.20654 0.137629,-0.15657 0.396874,-0.28466 0.576099,-0.28466 h 0.325862 l -0.292391,-0.30101 c -0.750204,-0.77231 0.617155,-2.77443 2.133777,-3.12432 0.762751,-0.17597 2.044507,0.015 2.534318,0.3777 0.66914,0.49541 0.6542,1.32142 -0.02721,1.50318 -0.244844,0.0653 -0.526144,0.23033 -0.625108,0.36668 -0.09896,0.13635 -0.336255,0.24791 -0.527324,0.24791 -0.20381,0 -0.333041,0.0739 -0.312658,0.17882 0.04128,0.21235 -0.328052,0.2416 -0.451621,0.0357 -0.170198,-0.2835 -0.869294,-0.13956 -1.389597,0.28611 -0.288519,0.23604 -0.617433,0.42916 -0.730924,0.42916 -0.168038,0 -0.174099,0.04 -0.03267,0.21546 0.09553,0.11851 0.216756,0.42429 0.269381,0.67951 0.08218,0.3986 0.150103,0.45999 0.481579,0.43529 l 0.385903,-0.0288 -0.360346,0.3438 c -0.439122,0.41895 -0.43887,0.41155 -0.02784,0.8166 0.525407,0.51778 0.575112,0.90839 0.168816,1.32666 -0.356502,0.367 -0.759532,0.43689 -1.276919,0.22142 z m 15.817147,-0.0402 c 0.0886,-0.27762 0.79988,-0.31787 0.79988,-0.0453 0,0.15496 -0.13217,0.22408 -0.42846,0.22408 -0.28054,0 -0.40877,-0.0617 -0.37142,-0.17882 z m -1.56243,-0.33236 c 0,-0.13322 0.0945,-0.20619 0.23166,-0.17882 0.34862,0.0696 0.39649,0.40389 0.0578,0.40389 -0.17069,0 -0.2895,-0.0924 -0.2895,-0.22507 z m -8.61261,-0.34417 c -0.19952,-0.20539 -0.25291,-0.39697 -0.19447,-0.69779 0.0443,-0.22806 0.003,-0.5643 -0.0923,-0.74717 -0.12723,-0.24474 -0.13092,-0.34691 -0.014,-0.38704 0.0874,-0.03 0.15888,-0.15084 0.15888,-0.26855 0,-0.16653 -0.10023,-0.19193 -0.451612,-0.11445 l -0.451621,0.0996 0.312658,-0.34778 c 0.270455,-0.30083 0.312665,-0.50347 0.312665,-1.50124 0,-1.34033 0.13882,-1.56014 0.89334,-1.41442 0.58423,0.11283 1.12655,0.73557 1.33518,1.53316 0.11814,0.45169 0.10424,0.80403 -0.0632,1.60286 -0.11808,0.56315 -0.24961,1.26346 -0.29229,1.55625 -0.12777,0.8765 -0.90982,1.24599 -1.45321,0.68659 z m 12.73508,0.18776 c -0.0509,-0.0524 -0.0926,-0.38627 -0.0926,-0.74181 0,-0.4653 0.084,-0.73851 0.29981,-0.97498 l 0.29981,-0.32855 -0.35048,-0.28381 c -0.49859,-0.40375 -0.68758,-0.97957 -0.63888,-1.94663 0.0368,-0.73048 0.089,-0.86766 0.39769,-1.04541 0.30532,-0.1758 0.41219,-0.17648 0.75909,-0.005 0.96254,0.47643 1.32755,1.85738 0.74912,2.83415 -0.23452,0.39603 -0.26073,0.55299 -0.13844,0.82929 0.24421,0.55177 0.17842,1.10912 -0.17078,1.44684 -0.30808,0.29796 -0.91943,0.41628 -1.1143,0.21568 z m -16.603778,-0.36809 c 0.04674,-0.33708 0.469951,-0.51469 0.689039,-0.28914 0.218295,0.22472 -0.02873,0.60955 -0.39125,0.60955 -0.274985,0 -0.333471,-0.0629 -0.297789,-0.32041 z m 3.101521,0.0343 c -0.05547,-0.0924 -0.03834,-0.23236 0.03813,-0.31104 0.09264,-0.0954 0.172577,-0.0871 0.239807,0.0249 0.0555,0.0924 0.0383,0.23236 -0.0381,0.31104 -0.09264,0.0954 -0.172575,0.0871 -0.239806,-0.0249 z m 14.868697,-1.5736 c -0.0472,-0.0787 0.0153,-0.14305 0.13896,-0.14305 0.12366,0 0.18619,0.0644 0.13896,0.14305 -0.0472,0.0787 -0.10977,0.14306 -0.13896,0.14306 -0.0292,0 -0.0917,-0.0644 -0.13896,-0.14306 z m -1.59804,-0.21009 c 0,-0.12798 0.0815,-0.17791 0.20844,-0.12775 0.11464,0.0453 0.20844,0.13983 0.20844,0.21009 0,0.0703 -0.0938,0.12775 -0.20844,0.12775 -0.11464,0 -0.20844,-0.0945 -0.20844,-0.21009 z m -5.97527,-1.64962 c -0.33074,-0.34048 -0.34734,-0.59128 -0.0751,-1.13336 0.20129,-0.4007 0.55154,-0.57758 1.15118,-0.58134 0.18027,-0.001 0.5739,-0.2679 0.93289,-0.63223 0.70883,-0.71939 1.42327,-0.93105 2.2242,-0.65893 0.55918,0.18999 1.04725,0.75485 1.04725,1.21204 0,0.17237 -0.16134,0.46947 -0.35852,0.66022 -0.28836,0.27893 -0.50584,0.3468 -1.11127,0.3468 -0.41401,0 -0.75293,0.0483 -0.75315,0.1073 -2.3e-4,0.059 -0.12548,0.10729 -0.27833,0.10729 -0.15286,0 -0.27793,-0.0644 -0.27793,-0.14306 0,-0.17918 -0.51167,-0.1893 -0.61798,-0.0122 -0.0432,0.072 1e-5,0.16344 0.096,0.20328 0.13133,0.0545 0.12791,0.0753 -0.0138,0.0837 -0.10361,0.006 -0.37417,0.17223 -0.60124,0.36893 -0.49833,0.43167 -0.98941,0.45742 -1.36426,0.0715 z M 96.554115,114.9762 c 0,-0.0787 0.06622,-0.14305 0.147162,-0.14305 0.08094,0 0.108512,0.0644 0.06128,0.14305 -0.04722,0.0787 -0.11346,0.14306 -0.147162,0.14306 -0.03372,0 -0.06128,-0.0644 -0.06128,-0.14306 z m 2.732876,-0.23842 c -0.167707,-0.17265 -0.09674,-0.44462 0.140471,-0.53833 0.273394,-0.108 0.676568,0.24846 0.539414,0.47692 -0.103711,0.17275 -0.533978,0.21161 -0.679885,0.0614 z m 12.851469,-0.0405 c 0.0306,-0.0944 0.10091,-0.16684 0.15633,-0.16094 0.16615,0.0177 0.13397,0.21391 -0.0452,0.27538 -0.0917,0.0315 -0.14174,-0.02 -0.11117,-0.11444 z m -2.10525,-6.58463 c -1.39251,-0.46271 -2.76609,-1.30887 -3.27306,-2.01628 -0.44836,-0.62562 -0.47248,-2.03387 -0.0513,-2.99365 0.49748,-1.13361 1.37669,-2.39144 1.96491,-2.81109 0.51483,-0.367288 0.68262,-0.407232 1.69495,-0.403515 1.04097,0.0038 1.19235,0.04413 2.05936,0.548355 1.34428,0.78178 2.29113,1.70121 2.47471,2.40305 0.17333,0.66267 0.0969,1.12396 -0.37203,2.24589 -0.74136,1.77366 -1.28264,2.56667 -2.02412,2.96545 -0.40435,0.21747 -1.89301,0.25466 -2.47344,0.0618 z m -0.0613,-2.63891 c 0.26233,-0.19836 0.25852,-0.21604 -0.1384,-0.64375 -0.45458,-0.48982 -0.84942,-0.5696 -0.93771,-0.18944 -0.0957,0.4119 0.021,0.70443 0.34506,0.86561 0.40828,0.20304 0.42034,0.20251 0.73105,-0.0324 z m 1.66425,-0.14574 c 0.37575,-0.38683 0.33106,-0.79474 -0.0871,-0.79474 -0.35261,0 -1.17048,0.7666 -1.0435,0.97809 0.16941,0.2822 0.77351,0.18423 1.13057,-0.18335 z m -0.83868,-0.86431 c 0,-0.3156 -0.43201,-0.47276 -0.65853,-0.23958 -0.23355,0.24044 -0.003,0.62046 0.34526,0.56953 0.20498,-0.03 0.31327,-0.14402 0.31327,-0.32995 z m 1.39592,-0.56768 c 0.41607,-0.42833 0.42346,-0.56544 0.0511,-0.94875 -0.32256,-0.33206 -0.84043,-0.28438 -1.27334,0.11725 -0.30486,0.28282 -0.30918,0.58434 -0.0132,0.92103 0.31963,0.36359 0.83129,0.32652 1.23542,-0.0895 z m -1.95474,-0.0238 c 0.36221,-0.37289 0.20799,-0.69791 -0.33117,-0.69791 -0.51136,0 -0.80852,0.31092 -0.66504,0.69583 0.11214,0.30085 0.70479,0.30209 0.99621,0.002 z m -13.812289,3.72305 c -1.352086,-0.69635 -2.445437,-1.80078 -2.577131,-2.60323 -0.149762,-0.91255 0.03388,-1.72129 0.623909,-2.74758 1.034422,-1.79928 1.81065,-2.360399 3.265293,-2.360399 0.871153,0 1.057584,0.05269 1.736998,0.490979 2.62916,1.69605 3.09703,3.02448 1.84257,5.23167 -1.417403,2.49391 -2.810677,3.0603 -4.891639,1.98856 z m -12.42051,0.0243 c -0.963625,-0.26673 -1.76781,-0.92271 -2.229305,-1.81847 -0.361712,-0.70208 -0.390367,-0.86632 -0.338062,-1.93764 0.04874,-0.99813 0.115234,-1.25682 0.4515,-1.75636 0.494205,-0.73415 1.357396,-1.3958 2.085211,-1.59834 1.629871,-0.45358 3.530043,0.51435 4.205311,2.14217 0.302579,0.7294 0.297905,2.09299 -0.01,2.91689 -0.345215,0.92376 -1.247881,1.72108 -2.288874,2.02178 -0.943657,0.27258 -0.996272,0.27342 -1.875786,0.0299 z"
       id="path1705" /></g></svg>
