<?xml version="1.0" encoding="UTF-8" standalone="no"?>
<!-- Created with Inkscape (http://www.inkscape.org/) -->

<svg
   width="64.298065mm"
   height="77.867714mm"
   viewBox="0 0 64.298065 77.867715"
   version="1.1"
   id="svg516"
   xml:space="preserve"
   sodipodi:docname="craftGraphic.svg"
   inkscape:version="1.2.1 (9c6d41e410, 2022-07-14)"
   xmlns:inkscape="http://www.inkscape.org/namespaces/inkscape"
   xmlns:sodipodi="http://sodipodi.sourceforge.net/DTD/sodipodi-0.dtd"
   xmlns="http://www.w3.org/2000/svg"
   xmlns:svg="http://www.w3.org/2000/svg"><sodipodi:namedview
     id="namedview8"
     pagecolor="#505050"
     bordercolor="#ffffff"
     borderopacity="1"
     inkscape:showpageshadow="0"
     inkscape:pageopacity="0"
     inkscape:pagecheckerboard="1"
     inkscape:deskcolor="#505050"
     inkscape:document-units="mm"
     showgrid="false"
     inkscape:zoom="2.7318768"
     inkscape:cx="120.79608"
     inkscape:cy="147.88368"
     inkscape:window-width="1920"
     inkscape:window-height="974"
     inkscape:window-x="-11"
     inkscape:window-y="474"
     inkscape:window-maximized="1"
     inkscape:current-layer="layer1" /><defs
     id="defs513"><filter
       style="color-interpolation-filters:sRGB"
       id="filter878"
       x="-0.0072412977"
       y="-0.0060099533"
       width="1.0143032"
       height="1.0120022"><feGaussianBlur
         stdDeviation="0.048200814"
         id="feGaussianBlur880" /></filter></defs><g
     id="layer1"
     transform="matrix(0.99542506,0,0,1.0000465,-68.688076,-95.964192)"
     style="fill:#000000;fill-opacity:1;filter:url(#filter878)"><path
       style="opacity:1;mix-blend-mode:normal;fill:#16f5ff;fill-opacity:1;stroke:#06ffed;stroke-width:0.685554;stroke-dasharray:none;stroke-opacity:1"
       d="m 99.768235,171.84299 c -0.278956,-0.61442 -0.783393,-2.20631 -1.120986,-3.53753 -0.337594,-1.33122 -0.792301,-2.55404 -1.010446,-2.71742 -0.218157,-0.16336 -1.125547,-0.29982 -2.016449,-0.3032 -5.848216,-0.0223 -16.716689,-2.58137 -21.629893,-5.09282 -6.87543,-3.51446 -5.484758,-8.00192 5.463039,-17.62839 l 3.233985,-2.84365 0.177469,-2.5898 c 0.216213,-3.15506 0.82223,-3.54706 1.064831,-0.68878 l 0.177469,2.09086 6.122784,-5.06435 6.122771,-5.06435 v -2.20506 c 0,-1.65416 -0.110809,-2.13025 -0.44368,-1.9057 -0.244022,0.16464 -2.280515,1.68877 -4.525532,3.38696 -2.245018,1.6982 -4.280142,3.22139 -4.522514,3.38487 -0.242372,0.16348 1.981664,-4.29598 4.942275,-9.9099 l 5.38295,-10.2071 0.63918,-4.7743 c 0.351558,-2.62586 1.003442,-5.81994 1.448652,-7.097977 0.73322,-2.104802 0.9094,-2.323677 1.8704,-2.323677 0.96101,0 1.13719,0.218875 1.87041,2.323677 0.44521,1.278037 1.09676,4.469617 1.4479,7.092417 l 0.63843,4.76874 5.08909,9.68556 c 0.71476,1.36034 1.40767,2.67463 2.04682,3.88302 1.86375,3.52363 3.27038,6.14677 3.42861,6.38552 0.50457,0.76133 0.36447,0.66466 -5.0611,-3.49187 -2.41045,-1.84667 -4.44694,-3.35758 -4.52553,-3.35758 -0.0786,0 -0.14289,0.98154 -0.14289,2.18121 v 2.18119 l 6.12278,5.06435 6.12276,5.06435 0.17748,-2.09086 c 0.2426,-2.85828 0.84862,-2.46628 1.06483,0.68878 l 0.17747,2.5898 3.37196,2.95107 c 3.84895,3.36855 7.72561,7.619 8.82859,9.67985 2.21312,4.1351 -0.48097,7.24547 -8.57103,9.89533 -3.81314,1.249 -7.65006,2.04171 -12.68057,2.61977 -6.76602,0.77752 -6.24972,0.56674 -6.72914,2.74708 -0.23107,1.05081 -0.71924,2.6838 -1.08485,3.62882 -0.82492,2.13228 -2.15123,2.40085 -2.968325,0.60109 z m 2.765655,-2.89806 c 0.83442,-3.2554 0.8316,-3.262 -1.38935,-3.262 -2.222012,0 -2.225889,0.009 -1.383549,3.262 1.031909,3.98497 1.751459,3.98497 2.772899,0 z m -4.768744,-5.18238 c -0.004,-0.38911 -0.251266,-2.89065 -0.549311,-5.55897 -0.304538,-2.72647 -0.633425,-10.00199 -0.750888,-16.6104 l -0.208995,-11.75893 -6.155545,5.02795 -6.155544,5.02796 -0.290911,11.71239 c -0.125298,10.0785 -0.835379,14.75574 -0.886333,4.86343 l -0.08017,-15.56507 -2.839552,2.56115 c -5.371226,4.84459 -9.406004,9.80134 -9.406004,11.55535 0,0.91909 1.854717,3.01658 3.514591,3.97463 3.580432,2.06658 9.816642,3.81037 17.361221,4.85462 5.600598,0.77517 6.456313,0.764 6.447405,-0.0841 z m 5.833734,-0.60643 c 0.59002,-3.28606 1.25974,-14.00303 1.47361,-23.58149 l 0.23399,-10.47984 -1.96554,-1.71823 c -1.08105,-0.94503 -2.06943,-1.71823 -2.1964,-1.71823 -0.12691,0 -1.11534,0.7732 -2.196389,1.71823 l -1.965553,1.71823 0.234002,10.47984 c 0.213878,9.57846 0.883577,20.29543 1.473617,23.58149 0.235866,1.31358 0.236537,1.31393 2.454323,1.31393 2.21779,0 2.21847,-3.5e-4 2.45434,-1.31393 z m 6.99186,0.70615 c 12.1785,-1.63333 19.71371,-4.5959 20.94706,-8.23562 0.65543,-1.93416 -2.65151,-6.35702 -9.09666,-12.16633 l -2.83954,-2.55941 0.0171,13.24077 c 0.0128,9.89243 -0.8583,9.57314 -0.98364,-0.50536 l -0.29089,-13.74616 -6.15554,-5.02796 -6.15553,-5.02795 -0.20901,11.75893 c -0.11751,6.60841 -0.44635,13.88393 -0.75088,16.6104 -0.29805,2.66832 -0.54524,5.16986 -0.54932,5.55897 -0.009,0.87012 0.28645,0.87497 6.06681,0.0997 z M 96.49615,120.60473 c 0.531161,-5.88731 0.54078,-6.81598 0.06453,-6.22944 -0.481726,0.59326 -6.951776,12.81136 -6.951776,13.12779 0,0.0994 1.508591,-0.95736 3.352441,-2.34817 l 3.352441,-2.52875 z m 12.57009,-0.12867 c -2.00152,-3.79801 -3.67115,-6.86903 -3.71026,-6.82449 -0.0392,0.0446 0.0687,2.07052 0.23956,4.50215 0.20095,2.85971 0.47267,4.53001 0.76939,4.72945 0.2523,0.16958 1.73651,1.29627 3.29825,2.50377 1.56176,1.20749 2.88515,2.15027 2.94087,2.09504 0.0557,-0.0554 -1.53628,-3.2079 -3.53781,-7.00592 z m -9.195111,4.61852 c 0.356051,-0.48866 0.291361,-0.82775 -0.344918,-1.80803 -0.666533,-1.02685 -0.881874,-1.13635 -1.445875,-0.73516 -0.512259,0.36439 -0.662696,0.96038 -0.662696,2.62527 v 2.15387 l 1.007614,-0.81723 c 0.554195,-0.4495 1.204831,-1.0879 1.445875,-1.41872 z m 4.398941,-2.48094 c -0.56022,-0.47102 -0.73987,-0.40235 -1.42678,0.5454 -1.05546,1.45626 -1.00903,1.71704 0.52875,2.96959 l 1.32195,1.07676 0.10852,-2.02645 c 0.0846,-1.58134 -0.0323,-2.1448 -0.53242,-2.5653 z m -2.07401,-0.021 c 0.56839,-0.98807 0.56582,-1.07448 -0.0479,-1.6043 -0.35676,-0.308 -0.80839,-0.55998 -1.0036,-0.55998 -0.19522,0 -0.64684,0.25198 -1.00361,0.55998 -0.613716,0.52982 -0.616305,0.61623 -0.0479,1.6043 0.3304,0.57437 0.8036,1.04431 1.05152,1.04431 0.24792,0 0.72111,-0.46994 1.05151,-1.04431 z m -3.71359,-1.99974 c 0,-0.2925 0.579509,-0.74967 1.287817,-1.01593 1.493563,-0.56146 4.036333,0.0691 4.036333,1.00081 0,0.30082 0.23959,0.65167 0.53241,0.77965 0.65167,0.28485 0.66239,-0.15203 0.14676,-5.98756 -0.34871,-3.94646 -0.5131,-4.602 -1.71584,-6.84205 -0.73159,-1.36257 -1.46303,-2.4774 -1.62541,-2.4774 -0.16238,0 -0.89382,1.11483 -1.625412,2.4774 -1.202725,2.24005 -1.367128,2.89559 -1.715829,6.84205 -0.515626,5.83547 -0.50492,6.27241 0.146749,5.98756 0.292827,-0.12806 0.532422,-0.47203 0.532422,-0.76453 z m 2.66207,-16.56393 c 0.17085,0 0.84806,1.0006 1.50489,2.22359 l 1.19425,2.22359 -0.22664,-2.02145 c -0.33932,-3.02672 -1.59324,-8.196584 -2.10545,-8.680783 -0.32073,-0.303174 -0.56032,-0.274738 -0.83253,0.09886 -0.4826,0.662335 -1.712195,5.915393 -2.008804,8.581933 l -0.224839,2.02145 1.194247,-2.22359 c 0.656816,-1.22299 1.334036,-2.22359 1.504876,-2.22359 z"
       id="path584"
       sodipodi:nodetypes="ssccsccsscccscsscccssscccsscssccccsccsccscssscscscccccscsscscccscssccssscccscscccccccccccscccsccsccsscssccscssccccccsscsccscscscssccsccccccccccc" /></g></svg>
