<?xml version="1.0" encoding="UTF-8" standalone="no"?>
<!-- Created with Inkscape (http://www.inkscape.org/) -->

<svg
   width="210mm"
   height="297mm"
   viewBox="0 0 210 297"
   version="1.1"
   id="svg5"
   xml:space="preserve"
   inkscape:version="1.2.1 (9c6d41e410, 2022-07-14)"
   sodipodi:docname="enemy1.svg"
   xmlns:inkscape="http://www.inkscape.org/namespaces/inkscape"
   xmlns:sodipodi="http://sodipodi.sourceforge.net/DTD/sodipodi-0.dtd"
   xmlns="http://www.w3.org/2000/svg"
   xmlns:svg="http://www.w3.org/2000/svg"><sodipodi:namedview
     id="namedview7"
     pagecolor="#505050"
     bordercolor="#ffffff"
     borderopacity="1"
     inkscape:showpageshadow="0"
     inkscape:pageopacity="0"
     inkscape:pagecheckerboard="1"
     inkscape:deskcolor="#505050"
     inkscape:document-units="mm"
     showgrid="false"
     inkscape:zoom="0.69130191"
     inkscape:cx="3.616365"
     inkscape:cy="557.64348"
     inkscape:window-width="1920"
     inkscape:window-height="974"
     inkscape:window-x="-11"
     inkscape:window-y="474"
     inkscape:window-maximized="1"
     inkscape:current-layer="layer1" /><defs
     id="defs2" /><g
     inkscape:label="Layer 1"
     inkscape:groupmode="layer"
     id="layer1"><path
       style="fill:#ab04ff;stroke-width:2.565;fill-opacity:1;stroke-dasharray:none;stroke:#ab04ff;stroke-opacity:1"
       d="m 121.42663,158.58799 c -3.67893,3.45581 -6.80388,6.28312 -6.94432,6.2829 -0.14044,-2.1e-4 -0.29076,-0.15037 -0.33403,-0.33369 -0.0433,-0.18331 0.88025,-5.04365 2.05229,-10.80075 1.17204,-5.75709 2.1059,-10.71065 2.07526,-11.0079 -0.0487,-0.47258 -0.50901,-0.4468 -3.66543,0.20529 -1.98533,0.41016 -4.02461,0.89272 -4.53173,1.07235 -1.14439,0.40536 -0.87593,-0.23682 -5.29597,12.66843 -3.40152,9.93151 -3.7404,10.78995 -4.2152,10.67787 -0.15004,-0.0354 -0.809058,-1.62108 -1.464486,-3.52369 -2.179714,-6.3274 -6.746816,-19.03316 -6.892805,-19.17589 -0.232538,-0.22738 -7.597334,-2.35363 -8.281326,-2.39087 -0.596465,-0.0325 -0.623947,-0.004 -0.601969,0.61667 0.02229,0.62985 3.297933,16.93681 3.835989,19.0965 0.14636,0.58747 0.250646,1.37815 0.231749,1.75706 -0.06377,1.27851 0.753731,1.98616 -12.711889,-11.00382 -3.509083,-3.38514 -7.24895,-6.92447 -8.310816,-7.86518 -1.850161,-1.63907 -1.928621,-1.7451 -1.881651,-2.54311 0.027,-0.45801 1.209014,-4.38738 2.62679,-8.73193 1.417777,-4.34455 3.836335,-11.80182 5.374572,-16.57171 1.538239,-4.76988 2.889231,-8.76495 3.002204,-8.87792 0.374866,-0.37487 0.684947,0.2568 1.207532,2.45984 0.516905,2.17911 0.517409,2.17999 0.903763,1.55858 0.212612,-0.34197 2.904657,-5.64477 5.982322,-11.78402 3.077665,-6.139239 5.758437,-11.324937 5.957271,-11.523772 0.819013,-0.819012 0.750181,0.05924 -0.911143,11.625632 -0.439398,3.05916 -1.21897,8.59383 -1.732382,12.29927 -0.513412,3.70544 -1.273026,9.17588 -1.688029,12.15653 -1.419547,10.19552 -1.607779,11.79299 -1.435234,12.18041 0.156501,0.35141 6.354051,2.46394 9.097472,3.10103 l 1.114478,0.25881 0.827899,-1.33779 c 0.455348,-0.73578 1.876827,-3.1485 3.158845,-5.36159 1.304326,-2.2516 2.472934,-4.0238 2.653334,-4.0238 0.18039,0 0.768,0.7665 1.33399,1.74053 0.55639,0.95729 1.89364,3.2625 2.97167,5.12269 1.90717,3.29091 1.97678,3.37966 2.57946,3.28919 1.3941,-0.20928 9.23222,-2.27654 9.70511,-2.55968 0.34761,-0.20812 0.49691,-0.56654 0.46896,-1.12581 -0.0474,-0.94989 -0.88462,-6.97223 -3.9411,-28.35127 -1.20987,-8.462609 -2.2843,-16.092819 -2.38762,-16.956019 -0.19022,-1.589262 0.0545,-2.172767 0.59448,-1.417604 0.16271,0.227536 2.47934,4.797004 5.14808,10.154384 4.95332,9.943599 6.85963,13.589899 7.10486,13.589899 0.0759,0 0.21349,-0.40077 0.30579,-0.89059 0.93813,-4.97854 1.20821,-4.9845 2.7286,-0.0602 0.54008,1.74924 2.97971,9.26492 5.42141,16.70151 2.44169,7.43659 4.4625,13.70848 4.49069,13.93754 0.0624,0.50687 -5.69312,6.23966 -15.72774,15.66569 z m 14.24724,-17.64633 c -2.51235,-7.9626 -9.67608,-29.51615 -9.81024,-29.51615 -0.0913,0 -0.2968,0.69327 -0.45674,1.5406 -0.15995,0.84732 -0.36895,1.71502 -0.46444,1.92822 -0.19423,0.43362 -8.72076,42.99355 -9.19882,45.91565 l -0.30487,1.8635 1.50211,-1.22753 c 1.7587,-1.43723 13.69038,-12.74871 17.04867,-16.1625 l 2.31253,-2.35076 z m -34.29303,22.54862 c 0.35561,-0.94981 1.46927,-4.10343 2.47481,-7.00805 1.00553,-2.90462 2.40178,-6.90276 3.10278,-8.88476 1.22654,-3.46794 1.25519,-3.63939 0.76077,-4.55298 -1.16683,-2.15607 -2.44478,-4.40043 -3.31388,-5.81986 -0.508,-0.82968 -1.51135,-2.51183 -2.22966,-3.73811 -0.71831,-1.22629 -1.37309,-2.22961 -1.45508,-2.22961 -0.26263,0 -5.664795,9.05598 -6.972098,11.68777 -0.690136,1.38935 -0.695987,1.35969 1.434364,7.27166 0.513884,1.42609 1.692817,4.75186 2.619857,7.39061 0.927035,2.63876 1.721573,4.83379 1.765636,4.87785 0.04406,0.0441 0.29778,0.70353 0.563811,1.46547 0.26603,0.76195 0.51034,1.35871 0.54291,1.32614 0.0326,-0.0326 0.35017,-0.83632 0.70578,-1.78613 z m 16.80334,-22.92591 c -0.0155,-0.64901 -0.37169,-2.20096 -0.501,-2.18312 -0.0597,0.008 -0.84062,0.20892 -1.73545,0.44597 -0.89483,0.23705 -2.4956,0.63165 -3.55726,0.8769 -1.06165,0.24524 -1.96559,0.4812 -2.00876,0.52437 -0.0432,0.0432 -0.62236,0.20141 -1.28711,0.35167 -0.66476,0.15026 -1.24147,0.30603 -1.28159,0.34615 -0.0401,0.0401 0.20704,0.57068 0.54925,1.17903 0.52556,0.93431 0.68861,1.09039 1.04989,1.00498 0.23523,-0.0556 2.27128,-0.51208 4.52457,-1.01437 2.25328,-0.50229 4.13322,-0.94961 4.17764,-0.99403 0.0444,-0.0444 0.0758,-0.28632 0.0698,-0.53755 z m 1.84185,-6.26493 c 0.31818,-1.43109 1.33217,-6.33341 2.25331,-10.89403 l 1.6748,-8.29204 -5.5133,-10.98127 c -3.03231,-6.039699 -5.62098,-11.082999 -5.7526,-11.207329 -0.13162,-0.12432 -0.16767,0.0501 -0.0801,0.38762 0.0876,0.33751 0.30328,1.7214 0.47938,3.0753 1.63281,12.553519 5.75109,41.588619 5.92326,41.760799 0.0749,0.0748 0.20374,-0.17512 0.28642,-0.55548 0.0827,-0.38037 0.41066,-1.86248 0.72884,-3.29357 z m -36.213541,15.84738 c -1.327632,-6.49267 -2.702282,-13.28444 -3.054782,-15.09282 -2.308559,-11.84325 -4.903499,-24.00267 -5.122408,-24.00267 -0.283645,0 -10.265741,30.572 -10.292857,31.52376 -0.0043,0.15217 2.386825,2.50222 5.313692,5.22235 2.926866,2.72012 7.633082,7.15253 10.458256,9.84979 2.825176,2.69726 5.131123,4.76918 5.124327,4.60428 -0.0068,-0.1649 -1.098597,-5.61201 -2.426228,-12.10469 z m 9.095241,-8.01486 c 0.185522,-0.30986 0.288416,-0.61227 0.228656,-0.67203 -0.190131,-0.19013 -8.003586,-2.6945 -8.886921,-2.84844 l -0.847821,-0.14775 -0.07486,1.23083 -0.07486,1.23083 3.285849,1.01004 c 4.655322,1.431 5.646637,1.62661 5.856422,1.15557 0.09692,-0.21763 0.328013,-0.6492 0.513535,-0.95905 z m -8.604878,-17.03815 c 0.589044,-4.22023 1.342378,-9.67488 1.674075,-12.12145 0.872155,-6.43294 2.042366,-14.925179 2.441317,-17.716669 0.189734,-1.32758 0.235565,-2.35908 0.101851,-2.29222 -0.133716,0.0669 -2.669139,4.97593 -5.634274,10.909059 -5.153438,10.31183 -5.382571,10.83438 -5.196492,11.85083 0.875243,4.78105 4.480731,21.87961 4.64916,22.04804 0.11542,0.11542 0.753871,-4.00501 1.964363,-12.67759 z"
       id="path179" /><path
       style="opacity:0.67;fill:#ff0000;fill-opacity:1;stroke:none;stroke-width:14.0235;stroke-dasharray:none;stroke-opacity:1"
       d="m 369.07342,577.13941 -11.0289,-31.23137 3.0637,-6.06628 c 1.68503,-3.33646 6.67706,-12.14656 11.09339,-19.57799 9.38903,-15.79909 7.36973,-16.58174 21.62794,8.38265 l 9.04831,15.8425 -10.98071,31.5302 c -6.03939,17.34161 -11.16389,31.71503 -11.38778,31.94093 -0.22388,0.2259 -5.37006,-13.64338 -11.43595,-30.82064 z"
       id="path1727"
       transform="scale(0.26458333)" /></g></svg>
