<?xml version="1.0" encoding="UTF-8" standalone="no"?>
<!-- Created with Inkscape (http://www.inkscape.org/) -->

<svg
   width="24.251738"
   height="124.79989"
   viewBox="0 0 6.4166055 33.019971"
   version="1.1"
   id="svg8982"
   xml:space="preserve"
   inkscape:version="1.2.1 (9c6d41e410, 2022-07-14)"
   sodipodi:docname="OrangeBlast.svg"
   xmlns:inkscape="http://www.inkscape.org/namespaces/inkscape"
   xmlns:sodipodi="http://sodipodi.sourceforge.net/DTD/sodipodi-0.dtd"
   xmlns:xlink="http://www.w3.org/1999/xlink"
   xmlns="http://www.w3.org/2000/svg"
   xmlns:svg="http://www.w3.org/2000/svg"><sodipodi:namedview
     id="namedview8984"
     pagecolor="#505050"
     bordercolor="#ffffff"
     borderopacity="1"
     inkscape:showpageshadow="0"
     inkscape:pageopacity="0"
     inkscape:pagecheckerboard="1"
     inkscape:deskcolor="#505050"
     inkscape:document-units="mm"
     showgrid="false"
     inkscape:zoom="2.3150307"
     inkscape:cx="-137.79515"
     inkscape:cy="38.660395"
     inkscape:window-width="1920"
     inkscape:window-height="991"
     inkscape:window-x="1911"
     inkscape:window-y="335"
     inkscape:window-maximized="1"
     inkscape:current-layer="layer1" /><defs
     id="defs8979"><linearGradient
       inkscape:collect="always"
       id="linearGradient1379"><stop
         style="stop-color:#f79500;stop-opacity:0.6163522;"
         offset="0"
         id="stop1375" /><stop
         style="stop-color:#ff6802;stop-opacity:1;"
         offset="1"
         id="stop1377" /></linearGradient><linearGradient
       inkscape:collect="always"
       xlink:href="#linearGradient1379"
       id="linearGradient1381"
       x1="89.329849"
       y1="99.585304"
       x2="122.34982"
       y2="99.585304"
       gradientUnits="userSpaceOnUse"
       gradientTransform="rotate(-90,105.83983,99.585298)" /></defs><g
     inkscape:label="Layer 1"
     inkscape:groupmode="layer"
     id="layer1"
     transform="translate(-102.63153,-83.07532)"><path
       style="fill:url(#linearGradient1381);fill-opacity:1;stroke-width:0.264583"
       d="m 108.86093,104.17556 c -0.2306,1.32931 -0.50806,2.10449 -0.85232,2.38125 -0.73269,0.58906 -1.10926,2.49006 -1.11341,5.62074 -0.004,3.18052 -0.15179,3.91774 -0.78429,3.91774 -0.38475,0 -0.53736,-0.49552 -0.91669,-2.97657 -0.2503,-1.63711 -0.69016,-3.67709 -0.97748,-4.53329 -0.28731,-0.85621 -0.4575,-1.72581 -0.37821,-1.93246 0.13964,-0.36389 -0.32649,-2.54303 -1.0081,-4.71289 -0.39253,-1.24956 -0.19405,-3.839131 0.50697,-6.614581 0.25728,-1.01865 0.45148,-2.308352 0.43155,-2.866012 -0.0199,-0.55766 0.12296,-1.33157 0.31755,-1.71979 0.48328,-0.96423 0.92893,-2.87009 1.23428,-5.27843 0.45753,-3.60859 1.17292,-3.04172 1.44423,1.14439 0.21287,3.28456 0.58794,5.29972 1.07754,5.78932 0.80875,0.80875 0.99189,1.883832 0.94405,5.541832 -0.0264,2.01831 0.0565,3.804251 0.18412,3.968751 0.13541,0.17449 0.0897,1.12021 -0.10979,2.27 z m -1.964,-8.603031 c -1.0156,-5.983612 -1.12625,-6.019622 -1.97867,-0.64391 -0.50496,3.18449 -0.50546,5.641521 -0.002,9.063721 0.75925,5.15952 0.96383,5.27307 1.71541,0.95213 0.54366,-3.1256 0.65533,-7.072951 0.26512,-9.371941 z m -0.43627,7.681031 c -0.55002,3.80778 -0.69242,3.80008 -1.27353,-0.0689 -0.50902,-3.388961 -0.50693,-4.620811 0.0129,-7.592671 0.61296,-3.504352 0.74614,-3.461502 1.29744,0.41739 0.46383,3.26347 0.46112,3.79721 -0.0368,7.244201 z"
       id="path870" /></g></svg>
