<?xml version="1.0" encoding="UTF-8" standalone="no"?>
<!-- Created with Inkscape (http://www.inkscape.org/) -->

<svg
   width="210mm"
   height="297mm"
   viewBox="0 0 210 297"
   version="1.1"
   id="svg516"
   xml:space="preserve"
   inkscape:export-filename="spaceshipBitmap.svg"
   inkscape:export-xdpi="96"
   inkscape:export-ydpi="96"
   xmlns:inkscape="http://www.inkscape.org/namespaces/inkscape"
   xmlns:sodipodi="http://sodipodi.sourceforge.net/DTD/sodipodi-0.dtd"
   xmlns="http://www.w3.org/2000/svg"
   xmlns:svg="http://www.w3.org/2000/svg"><sodipodi:namedview
     id="namedview518"
     pagecolor="#505050"
     bordercolor="#ffffff"
     borderopacity="1"
     inkscape:showpageshadow="0"
     inkscape:pageopacity="0"
     inkscape:pagecheckerboard="1"
     inkscape:deskcolor="#505050"
     inkscape:document-units="mm"
     showgrid="false" /><defs
     id="defs513" /><g
     inkscape:label="Layer 1"
     inkscape:groupmode="layer"
     id="layer1"><path
       style="fill:#00a9fe;fill-opacity:1;stroke-width:0.264583"
       d="m 90.538905,153.48312 c -0.20794,-0.4021 -0.58396,-1.4439 -0.83561,-2.3151 -0.25165,-0.87121 -0.5906,-1.67148 -0.75321,-1.7784 -0.16262,-0.10691 -0.83901,-0.19621 -1.50311,-0.19843 -4.3594,-0.0146 -12.46102,-1.68935 -16.12344,-3.33295 -5.12511,-2.30001 -4.08847,-5.23678 4.07228,-11.53674 l 2.41069,-1.86101 0.13229,-1.69487 c 0.16117,-2.0648 0.61291,-2.32134 0.79375,-0.45077 l 0.13229,1.36835 4.56407,-3.31432 4.56406,-3.31432 v -1.44308 c 0,-1.08255 -0.0826,-1.39413 -0.33073,-1.24717 -0.1819,0.10775 -1.69995,1.1052 -3.37344,2.21657 -1.67349,1.11137 -3.19052,2.10821 -3.37119,2.21519 -0.18067,0.10699 1.47718,-2.81146 3.68409,-6.48544 l 4.01258,-6.67995 0.47646,-3.1245 c 0.26206,-1.71847 0.74799,-3.80881 1.07986,-4.64521 0.54656,-1.37747 0.67789,-1.52071 1.39424,-1.52071 0.71636,0 0.84769,0.14324 1.39425,1.52071 0.33187,0.8364 0.81755,2.9251 1.0793,4.64157 l 0.4759,3.12086 3.79353,6.33863 c 2.086425,3.48626 3.923115,6.51033 4.081515,6.72016 0.37612,0.49824 0.27168,0.43498 -3.772665,-2.28523 -1.79681,-1.20853 -3.31486,-2.19733 -3.37344,-2.19733 -0.0586,0 -0.10651,0.64236 -0.10651,1.42747 v 1.42746 l 4.56406,3.31432 4.564055,3.31432 0.1323,-1.36835 c 0.18084,-1.87057 0.63258,-1.61403 0.79375,0.45077 l 0.13229,1.69487 2.51354,1.93131 c 2.8691,2.20451 5.75885,4.98618 6.58104,6.33489 1.64971,2.70618 -0.35853,4.74173 -6.38905,6.47592 -2.84241,0.81739 -5.70254,1.33617 -9.452405,1.71448 -5.04355,0.50884 -4.65869,0.3709 -5.01606,1.7978 -0.17224,0.6877 -0.53614,1.75639 -0.80867,2.37485 -0.61492,1.39545 -1.60358,1.57122 -2.21266,0.39338 z m 2.06158,-1.89661 c 0.622,-2.13047 0.6199,-2.13479 -1.03565,-2.13479 -1.65634,0 -1.65923,0.006 -1.03133,2.13479 0.76921,2.60793 1.30558,2.60793 2.06698,0 z m -3.55473,-3.39156 c -0.003,-0.25466 -0.1873,-1.89177 -0.40947,-3.63802 -0.22701,-1.78432 -0.47217,-6.54572 -0.55973,-10.87054 l -0.15579,-7.69553 -4.58849,3.2905 -4.58849,3.29051 -0.0718,5.06649 c -0.0934,6.59579 -0.55243,6.80283 -0.73322,0.33073 l -0.13229,-4.73575 -2.11667,1.67612 c -4.00384,3.1705 -7.01146,6.41441 -7.01146,7.5623 0,0.60149 1.38255,1.97418 2.61986,2.60117 2.66894,1.35245 7.31756,2.49366 12.94147,3.17706 4.17482,0.5073 4.81269,0.5 4.80605,-0.055 z m 4.3486,-0.39688 c 0.43982,-2.15053 0.93904,-9.16416 1.09847,-15.4327 l 0.17442,-6.85844 -1.46516,-1.12448 c -0.80584,-0.61847 -1.5426,-1.12448 -1.63725,-1.12448 -0.0946,0 -0.8314,0.50601 -1.63724,1.12448 l -1.46517,1.12448 0.17443,6.85844 c 0.15943,6.26854 0.65864,13.28217 1.09847,15.4327 0.17582,0.85966 0.17632,0.8599 1.82951,0.8599 1.65319,0 1.6537,-2.4e-4 1.82952,-0.8599 z m 5.2119,0.46214 c 9.078145,-1.06892 14.695075,-3.00775 15.614445,-5.38973 0.48857,-1.2658 -1.9765,-4.1603 -6.78087,-7.96215 l -2.11666,-1.67499 -0.13229,4.73575 c -0.1808,6.4721 -0.6398,6.26506 -0.73323,-0.33073 l -0.0718,-5.06649 -4.588485,-3.29051 -4.58848,-3.2905 -0.1558,7.69553 c -0.0876,4.32482 -0.33272,9.08622 -0.55973,10.87054 -0.22217,1.74625 -0.40643,3.38336 -0.40947,3.63802 -0.007,0.56944 0.21352,0.57261 4.52234,0.0653 z m -10.50644,-28.30953 c 0.39594,-3.85289 0.40311,-4.46066 0.0481,-4.0768 -0.35909,0.38825 -5.18202,8.38428 -5.18202,8.59137 0,0.065 1.12454,-0.62654 2.49899,-1.53674 l 2.49899,-1.65492 z m 9.37004,-0.0842 c -1.49198,-2.48558 -2.73656,-4.49538 -2.76571,-4.46623 -0.0292,0.0292 0.0512,1.35503 0.17857,2.94639 0.14979,1.87151 0.35234,2.96463 0.57352,3.09515 0.18807,0.11098 1.29444,0.84833 2.4586,1.63857 1.16417,0.79023 2.150655,1.40722 2.192195,1.37108 0.0415,-0.0362 -1.145185,-2.09938 -2.637175,-4.58496 z m -6.85425,3.02255 c 0.26541,-0.3198 0.21719,-0.54172 -0.25711,-1.18325 -0.49685,-0.67202 -0.65737,-0.74368 -1.07779,-0.48112 -0.38185,0.23847 -0.49399,0.62851 -0.49399,1.71808 v 1.40958 l 0.7511,-0.53483 c 0.41311,-0.29416 0.89811,-0.71196 1.07779,-0.92846 z m 3.27907,-1.62363 c -0.4176,-0.30826 -0.55151,-0.26332 -1.06355,0.35693 -0.78677,0.95303 -0.75216,1.1237 0.39414,1.94342 l 0.98541,0.70468 0.0809,-1.32619 c 0.0631,-1.0349 -0.0241,-1.40365 -0.39688,-1.67884 z m -1.54601,-0.0138 c 0.42369,-0.64663 0.42177,-0.70318 -0.0357,-1.04991 -0.26594,-0.20157 -0.60259,-0.36648 -0.74811,-0.36648 -0.14552,0 -0.48217,0.16491 -0.74811,0.36648 -0.45748,0.34673 -0.45941,0.40328 -0.0357,1.04991 0.24629,0.3759 0.59902,0.68345 0.78383,0.68345 0.1848,0 0.53753,-0.30755 0.78382,-0.68345 z m -2.7682,-1.3087 c 0,-0.19143 0.43198,-0.49062 0.95997,-0.66487 1.11334,-0.36744 3.00878,0.0452 3.00878,0.65497 0,0.19687 0.17859,0.42648 0.39687,0.51024 0.48577,0.18641 0.49376,-0.0995 0.1094,-3.91851 -0.25994,-2.58273 -0.38248,-3.01174 -1.27903,-4.47772 -0.54535,-0.89173 -1.09058,-1.62132 -1.21162,-1.62132 -0.12104,0 -0.66627,0.72959 -1.21162,1.62132 -0.89654,1.46598 -1.01909,1.89499 -1.27902,4.47772 -0.38436,3.81897 -0.37638,4.10492 0.10939,3.91851 0.21828,-0.0838 0.39688,-0.30892 0.39688,-0.50034 z m 1.98437,-10.84013 c 0.12736,0 0.63216,0.65484 1.12178,1.45521 l 0.89022,1.45521 -0.16894,-1.32292 c -0.25294,-1.98081 -1.18764,-5.36418 -1.56945,-5.68106 -0.23908,-0.19841 -0.41768,-0.1798 -0.62059,0.0647 -0.35974,0.43346 -1.27631,3.87127 -1.49741,5.61637 l -0.1676,1.32292 0.89022,-1.45521 c 0.48961,-0.80037 0.99442,-1.45521 1.12177,-1.45521 z"
       id="path584" /></g></svg>
